:FULLY-SPECIFIED
:FORCE-ALL-JOINTS-BE-3DOF
:DEGREES
340
root 8.19863 15.915 -21.1879 9.87255 30.3509 6.24086
lfemur -17.499 23.2949 -13.4515
ltibia 47.6623 0 0
lfoot -17.7029 13.3684 0
ltoes -15.1008 0 0
rfemur -44.1052 -7.49744 4.48663
rtibia 53.1113 0 0
rfoot 3.91333 -14.2394 0
rtoes 33.4639 0 0
lowerback 5.49579 -0.826737 -2.50526
upperback 3.56961 -1.1688 -1.00297
thorax 0.653052 -0.605725 0.426103
lowerneck -4.54709 -10.0781 1.69367
upperneck -4.85241 -13.3344 6.36768
head -0.368809 -6.7312 1.56827
lclavicle -2.35923e-14 1.14275e-14 0
lhumerus -48.9937 -46.2089 111.41
lradius 59.5305 0 0
lwrist 15.7346 0 0
lhand 7.86843 11.8436 0
lfingers 7.12502 0 0
lthumb 33.038 38.1926 0
rclavicle -2.35923e-14 1.14275e-14 0
rhumerus -14.0543 13.4125 -64.859
rradius 77.8976 0 0
rwrist -2.64356 0 0
rhand -34.9509 -28.3269 0
rfingers 7.12502 0 0
rthumb -8.09496 -777.839 0
341
root 8.13305 15.9359 -21.0163 9.83981 28.7583 5.82327
lfemur -18.3669 23.3114 -13.36
ltibia 48.7209 0 0
lfoot -17.4811 12.7364 0
ltoes -14.0481 0 0
rfemur -43.5118 -7.44644 5.43449
rtibia 52.7497 0 0
rfoot 3.04948 -13.7089 0
rtoes 32.8696 0 0
lowerback 5.48479 -0.763104 -2.31889
upperback 3.5393 -1.07749 -0.922164
thorax 0.626976 -0.558835 0.400204
lowerneck -4.67504 -9.77657 1.71472
upperneck -4.71543 -12.9454 6.23263
head -0.318374 -6.53301 1.52431
lclavicle -2.35321e-14 1.03182e-14 0
lhumerus -48.7134 -45.3672 110.872
lradius 59.4807 0 0
lwrist 15.9319 0 0
lhand 6.87341 11.5599 0
lfingers 7.12502 0 0
lthumb 32.0848 38.0356 0
rclavicle -2.35321e-14 1.03182e-14 0
rhumerus -14.8835 13.3398 -65.8721
rradius 77.3935 0 0
rwrist -2.2826 0 0
rhand -34.0405 -28.0715 0
rfingers 7.12502 0 0
rthumb -7.21642 -777.577 0
342
root 8.06418 15.9578 -20.8362 9.80542 27.0858 5.38475
lfemur -19.2783 23.3287 -13.264
ltibia 49.8325 0 0
lfoot -17.2482 12.0727 0
ltoes -12.9427 0 0
rfemur -42.8887 -7.39287 6.42986
rtibia 52.3699 0 0
rfoot 2.14234 -13.1518 0
rtoes 32.2455 0 0
lowerback 5.47325 -0.696282 -2.12318
upperback 3.50748 -0.981594 -0.837312
thorax 0.599593 -0.509594 0.373007
lowerneck -4.80942 -9.45998 1.73682
upperneck -4.57159 -12.5369 6.09082
head -0.265412 -6.3249 1.47816
lclavicle -2.3469e-14 9.15323e-15 0
lhumerus -48.4191 -44.4834 110.307
lradius 59.4283 0 0
lwrist 16.139 0 0
lhand 5.82852 11.262 0
lfingers 7.12502 0 0
lthumb 31.0838 37.8708 0
rclavicle -2.3469e-14 9.15323e-15 0
rhumerus -15.7543 13.2634 -66.936
rradius 76.864 0 0
rwrist -1.90355 0 0
rhand -33.0845 -27.8033 0
rfingers 7.12502 0 0
rthumb -6.29383 -777.302 0
343
root 7.9924 15.9807 -20.6485 9.76959 25.3429 4.92777
lfemur -20.2281 23.3467 -13.1639
ltibia 50.991 0 0
lfoot -17.0055 11.3811 0
ltoes -11.7907 0 0
rfemur -42.2394 -7.33705 7.46715
rtibia 51.9741 0 0
rfoot 1.197 -12.5713 0
rtoes 31.5952 0 0
lowerback 5.46122 -0.626645 -1.91923
upperback 3.47431 -0.881664 -0.748885
thorax 0.571057 -0.45828 0.344665
lowerneck -4.94945 -9.13005 1.75986
upperneck -4.42169 -12.1112 5.94302
head -0.210219 -6.10801 1.43006
lclavicle -2.34031e-14 7.93924e-15 0
lhumerus -48.1124 -43.5623 109.718
lradius 59.3737 0 0
lwrist 16.3549 0 0
lhand 4.73963 10.9515 0
lfingers 7.12502 0 0
lthumb 30.0407 37.699 0
rclavicle -2.34031e-14 7.93924e-15 0
rhumerus -16.6617 13.1838 -68.0447
rradius 76.3123 0 0
rwrist -1.50853 0 0
rhand -32.0882 -27.5238 0
rfingers 7.12502 0 0
rthumb -5.33239 -777.015 0
344
root 7.91812 16.0044 -20.4542 9.7325 23.539 4.45477
lfemur -21.2111 23.3653 -13.0603
ltibia 52.19 0 0
lfoot -16.7543 10.6653 0
ltoes -10.5983 0 0
rfemur -41.5673 -7.27928 8.54077
rtibia 51.5645 0 0
rfoot 0.218544 -11.9705 0
rtoes 30.9221 0 0
lowerback 5.44876 -0.554569 -1.70813
upperback 3.43999 -0.778234 -0.657362
thorax 0.541522 -0.405169 0.31533
lowerneck -5.09439 -8.78856 1.7837
upperneck -4.26654 -11.6706 5.79006
head -0.153093 -5.88353 1.38027
lclavicle -2.3335e-14 6.68274e-15 0
lhumerus -47.7949 -42.609 109.109
lradius 59.3172 0 0
lwrist 16.5784 0 0
lhand 3.6126 10.6301 0
lfingers 7.12502 0 0
lthumb 28.961 37.5212 0
rclavicle -2.3335e-14 6.68274e-15 0
rhumerus -17.601 13.1015 -69.1923
rradius 75.7412 0 0
rwrist -1.09968 0 0
rhand -31.057 -27.2345 0
rfingers 7.12502 0 0
rthumb -4.33728 -776.718 0
345
root 7.84171 16.0288 -20.2543 9.69435 21.6834 3.96823
lfemur -22.2223 23.3845 -12.9537
ltibia 53.4233 0 0
lfoot -16.4959 9.92898 0
ltoes -9.37179 0 0
rfemur -40.8759 -7.21985 9.64514
rtibia 51.1431 0 0
rfoot -0.787928 -11.3524 0
rtoes 30.2297 0 0
lowerback 5.43595 -0.48043 -1.49099
upperback 3.40468 -0.671843 -0.563218
thorax 0.51114 -0.350537 0.285155
lowerneck -5.24347 -8.4373 1.80822
upperneck -4.10695 -11.2174 5.63271
head -0.0943308 -5.65263 1.32906
lclavicle -2.32649e-14 5.39026e-15 0
lhumerus -47.4684 -41.6284 108.482
lradius 59.2591 0 0
lwrist 16.8082 0 0
lhand 2.45329 10.2995 0
lfingers 7.12502 0 0
lthumb 27.8505 37.3384 0
rclavicle -2.32649e-14 5.39026e-15 0
rhumerus -18.5671 13.0167 -70.3727
rradius 75.1538 0 0
rwrist -0.679119 0 0
rhand -29.9962 -26.937 0
rfingers 7.12502 0 0
rthumb -3.31368 -776.413 0
346
root 7.76355 16.0537 -20.0499 9.65533 19.7855 3.47061
lfemur -23.2566 23.4041 -12.8447
ltibia 54.6848 0 0
lfoot -16.2316 9.17588 0
ltoes -8.11735 0 0
rfemur -40.1689 -7.15907 10.7746
rtibia 50.7122 0 0
rfoot -1.81732 -10.7203 0
rtoes 29.5215 0 0
lowerback 5.42285 -0.404601 -1.26891
upperback 3.36857 -0.563028 -0.46693
thorax 0.480067 -0.294661 0.254293
lowerneck -5.39595 -8.07803 1.8333
upperneck -3.94372 -10.7538 5.47178
head -0.0342306 -5.41646 1.27669
lclavicle -2.31932e-14 4.06834e-15 0
lhumerus -47.1344 -40.6254 107.841
lradius 59.1996 0 0
lwrist 17.0433 0 0
lhand 1.26759 9.96142 0
lfingers 7.12502 0 0
lthumb 26.7146 37.1513 0
rclavicle -2.31932e-14 4.06834e-15 0
rhumerus -19.5552 12.93 -71.58
rradius 74.5531 0 0
rwrist -0.248981 0 0
rhand -28.9114 -26.6326 0
rfingers 7.12502 0 0
rthumb -2.26676 -776.101 0
347
root 7.68405 16.079 -19.8419 9.61563 17.8548 2.96438
lfemur -24.3087 23.4241 -12.7338
ltibia 55.9681 0 0
lfoot -15.9627 8.40974 0
ltoes -6.84118 0 0
rfemur -39.4496 -7.09723 11.9237
rtibia 50.2738 0 0
rfoot -2.86455 -10.0772 0
rtoes 28.8011 0 0
lowerback 5.40952 -0.32746 -1.04298
upperback 3.33183 -0.452329 -0.368974
thorax 0.448455 -0.237817 0.222897
lowerneck -5.55108 -7.71255 1.85881
upperneck -3.77767 -10.2823 5.30806
head 0.0269105 -5.17621 1.2234
lclavicle -2.31202e-14 2.72352e-15 0
lhumerus -46.7946 -39.6051 107.188
lradius 59.1392 0 0
lwrist 17.2825 0 0
lhand 0.0613459 9.61747 0
lfingers 7.12502 0 0
lthumb 25.559 36.9611 0
rclavicle -2.31202e-14 2.72352e-15 0
rhumerus -20.5605 12.8419 -72.8082
rradius 73.9419 0 0
rwrist 0.188606 0 0
rhand -27.8077 -26.323 0
rfingers 7.12502 0 0
rthumb -1.20171 -775.783 0
348
root 7.60357 16.1047 -19.6314 9.57545 15.9006 2.45198
lfemur -25.3736 23.4443 -12.6216
ltibia 57.267 0 0
lfoot -15.6905 7.63428 0
ltoes -5.5495 0 0
rfemur -38.7215 -7.03465 13.0868
rtibia 49.83 0 0
rfoot -3.9245 -9.42635 0
rtoes 28.0719 0 0
lowerback 5.39603 -0.24938 -0.814297
upperback 3.29464 -0.340284 -0.269827
thorax 0.416459 -0.180282 0.191118
lowerneck -5.70808 -7.34262 1.88464
upperneck -3.6096 -9.80497 5.14235
head 0.0887951 -4.93303 1.16947
lclavicle -2.30464e-14 1.36236e-15 0
lhumerus -46.4507 -38.5724 106.528
lradius 59.0779 0 0
lwrist 17.5246 0 0
lhand -1.15957 9.26933 0
lfingers 7.12502 0 0
lthumb 24.3894 36.7685 0
rclavicle -2.30464e-14 1.36236e-15 0
rhumerus -21.578 12.7526 -74.0513
rradius 73.3233 0 0
rwrist 0.631515 0 0
rhand -26.6906 -26.0097 0
rfingers 7.12502 0 0
rthumb -0.123705 -775.462 0
